<svg height="495pt" viewBox="0 0 495 495.7" width="495pt" xmlns="http://www.w3.org/2000/svg"><path d="m337.550781 232.398438c6.941407-1.125 13.964844-1.695313 21-1.699219 70.476563-.039063 127.632813 57.074219 127.644531 127.550781.015626 70.472656-57.121093 127.609375-127.597656 127.597656-70.476562-.015625-127.589844-57.171875-127.546875-127.648437.011719-5.550781.378907-11.09375 1.097657-16.597657 7.261718-55.636718 50.058593-99.976562 105.402343-109.203124zm0 0" fill="#00efd1"/><path d="m337.550781 10.199219v222.199219c-55.367187 9.21875-98.195312 53.550781-105.5 109.203124h-154.699219v-331.402343zm-44 142.601562v-90.101562h-172.199219v90.199219h172.199219zm0 0" fill="#00acea"/><path d="m121.351562 62.699219h172.199219v90.199219h-172.199219zm0 0" fill="#00efd1"/><path d="m247.648438 421.199219h-197.199219c-21.945313-.078125-39.71875-17.851563-39.800781-39.800781v-1.597657c.890624-21.339843 18.441406-38.1875 39.800781-38.199219h181.601562c-.722656 5.503907-1.089843 11.046876-1.101562 16.597657-.011719 22.097656 5.742187 43.8125 16.699219 63zm0 0" fill="#d4e1f4"/><path d="m77.351562 10.199219v331.402343h-26.902343c-21.359375.011719-38.910157 16.859376-39.800781 38.199219v-329.800781c-.003907-10.558594 4.1875-20.683594 11.652343-28.148438 7.464844-7.464843 17.589844-11.65625 28.148438-11.652343zm0 0" fill="#00efd1"/><g fill="#083863"><path d="m303.351562 63c-.015624-5.515625-4.484374-9.984375-10-10h-172c-5.519531.015625-9.984374 4.484375-10 10v90c.015626 5.515625 4.480469 9.984375 10 10h172c5.515626-.015625 9.984376-4.484375 10-10zm-172 10h152v70h-152zm0 0"/><path d="m358.449219 220.699219c-3.597657 0-7.097657.101562-11.097657.402343v-210.902343c.058594-2.652344-.9375-5.222657-2.777343-7.136719-1.839844-1.917969-4.371094-3.0195312-7.023438-3.0625h-287.101562c-27.585938.109375-49.933594 22.414062-50.097657 50v329.800781c0 .097657.199219.300781.199219.398438v1.199219c.042969 27.457031 22.34375 49.667968 49.800781 49.601562h191.5c25.175782 40.15625 69.199219 64.585938 116.597657 64.699219 75.800781 0 137.5-61.597657 137.5-137.5 0-75.898438-61.699219-137.5-137.5-137.5zm-31.097657 3.5c-26 5.902343-49.101562 19.300781-67.800781 38.601562-18.46875 19.078125-30.980469 43.125-36 69.199219h-136.199219v-312h240zm-276.902343-204.199219h16.902343v312h-16.902343c-10.777344-.046875-21.300781 3.277344-30.097657 9.5v-291.5c.128907-16.554688 13.546876-29.925781 30.097657-30zm-21.097657 382.398438c-5.597656-5.550782-8.734374-13.117188-8.703124-21v-1c.613281-15.96875 13.820312-28.554688 29.800781-28.398438h170.800781c-.101562 2-.199219 4.101562-.199219 6.300781-.082031 18.101563 3.527344 36.035157 10.597657 52.699219h-181.199219c-7.898438.070312-15.5-3.027344-21.097657-8.601562zm329.199219 73.402343c-41.773437-.078125-80.386719-22.257812-101.5-58.300781-.335937-.820312-.773437-1.589844-1.300781-2.300781-9.636719-17.417969-14.695312-36.996094-14.699219-56.898438-.023437-5.117187.3125-10.230469 1-15.300781 6.777344-51.210938 46.160157-92.015625 97.097657-100.601562.175781.027343.351562-.007813.5-.097657 6.25-1 12.570312-1.503906 18.902343-1.5 64.894531 0 117.5 52.605469 117.5 117.5s-52.605469 117.5-117.5 117.5zm0 0"/><path d="m389.550781 327.601562-41 41-19.902343-20.101562c-3.863282-3.921875-10.175782-3.964844-14.097657-.101562-3.921875 3.867187-3.964843 10.179687-.101562 14.101562l27 27.300781c1.871093 1.910157 4.429687 2.988281 7.101562 3 2.671875-.011719 5.230469-1.089843 7.097657-3l48.101562-48.199219c3.898438-3.933593 3.898438-10.269531 0-14.203124-4.042969-3.691407-10.261719-3.605469-14.199219.203124zm0 0"/></g></svg>