<svg height="495pt" viewBox="0 0 495 495.7" width="495pt" xmlns="http://www.w3.org/2000/svg"><path d="m337.550781 232.398438c6.941407-1.125 13.964844-1.695313 21-1.699219 70.476563-.039063 127.632813 57.074219 127.644531 127.550781.015626 70.472656-57.121093 127.609375-127.597656 127.597656-70.476562-.015625-127.589844-57.171875-127.546875-127.648437.011719-5.550781.378907-11.09375 1.097657-16.597657 7.261718-55.636718 50.058593-99.976562 105.402343-109.203124zm66 189.601562v-37.601562c.019531-10.082032-3.976562-19.761719-11.105469-26.890626-7.132812-7.132812-16.808593-11.128906-26.894531-11.109374h-13c-20.992187-.007813-38.011719 17.011718-38 38v37.601562zm-18.699219-118.699219c.015626-6.871093-2.722656-13.464843-7.601562-18.300781-4.847656-4.792969-11.382812-7.488281-18.199219-7.5-6.871093-.015625-13.464843 2.722656-18.300781 7.601562-8.238281 8.273438-9.894531 21.046876-4.039062 31.148438 5.855468 10.101562 17.761718 15.015625 29.035156 11.980469 11.273437-3.03125 19.109375-13.253907 19.105468-24.929688zm0 0" fill="#00efd1"/><path d="m403.550781 384.5v37.5h-89v-37.601562c-.023437-10.082032 3.972657-19.761719 11.105469-26.890626 7.132812-7.132812 16.808594-11.128906 26.894531-11.109374h13c21.007813.039062 38.015625 17.089843 38 38.101562zm0 0" fill="#fedb41"/><path d="m377.25 285c4.867188 4.847656 7.601562 11.433594 7.601562 18.300781 0 6.867188-2.734374 13.453125-7.601562 18.300781-10.097656 9.960938-26.34375 9.90625-36.375-.125s-10.085938-26.277343-.125-36.375c10.058594-10.097656 26.386719-10.140624 36.5-.101562zm0 0" fill="#fedb41"/><path d="m337.550781 10.199219v222.199219c-55.367187 9.21875-98.195312 53.550781-105.5 109.203124h-154.699219v-331.402343zm-44 142.601562v-90.101562h-172.199219v90.199219h172.199219zm0 0" fill="#00acea"/><path d="m121.351562 62.699219h172.199219v90.199219h-172.199219zm0 0" fill="#00efd1"/><path d="m247.648438 421.199219h-197.199219c-21.945313-.078125-39.71875-17.851563-39.800781-39.800781v-1.597657c.890624-21.339843 18.441406-38.1875 39.800781-38.199219h181.601562c-.722656 5.503907-1.089843 11.046876-1.101562 16.597657-.011719 22.097656 5.742187 43.8125 16.699219 63zm0 0" fill="#d4e1f4"/><path d="m77.351562 10.199219v331.402343h-26.902343c-21.359375.011719-38.910157 16.859376-39.800781 38.199219v-329.800781c-.003907-10.558594 4.1875-20.683594 11.652343-28.148438 7.464844-7.464843 17.589844-11.65625 28.148438-11.652343zm0 0" fill="#00efd1"/><g fill="#083863"><path d="m303.351562 63c-.015624-5.515625-4.484374-9.984375-10-10h-172c-5.519531.015625-9.984374 4.484375-10 10v90c.015626 5.515625 4.480469 9.984375 10 10h172c5.515626-.015625 9.984376-4.484375 10-10zm-172 10h152v70h-152zm0 0"/><path d="m358.449219 220.699219c-3.597657 0-7.097657.101562-11.097657.402343v-210.902343c.058594-2.652344-.9375-5.222657-2.777343-7.136719-1.839844-1.917969-4.371094-3.0195312-7.023438-3.0625h-287.101562c-27.585938.109375-49.933594 22.414062-50.097657 50v329.800781c0 .097657.199219.300781.199219.398438v1.199219c.042969 27.457031 22.34375 49.667968 49.800781 49.601562h191.5c25.175782 40.15625 69.199219 64.585938 116.597657 64.699219 75.800781 0 137.5-61.597657 137.5-137.5 0-75.898438-61.699219-137.5-137.5-137.5zm-31.097657 3.5c-26 5.902343-49.101562 19.300781-67.800781 38.601562-18.46875 19.078125-30.980469 43.125-36 69.199219h-136.199219v-312h240zm-276.902343-204.199219h16.902343v312h-16.902343c-10.777344-.046875-21.300781 3.277344-30.097657 9.5v-291.5c.128907-16.554688 13.546876-29.925781 30.097657-30zm-21.097657 382.398438c-5.597656-5.550782-8.734374-13.117188-8.703124-21v-1c.613281-15.96875 13.820312-28.554688 29.800781-28.398438h170.800781c-.101562 2-.199219 4.101562-.199219 6.300781-.082031 18.101563 3.527344 36.035157 10.597657 52.699219h-181.199219c-7.898438.070312-15.5-3.027344-21.097657-8.601562zm329.199219 73.402343c-41.773437-.078125-80.386719-22.257812-101.5-58.300781-.335937-.820312-.773437-1.589844-1.300781-2.300781-9.636719-17.417969-14.695312-36.996094-14.699219-56.898438-.023437-5.117187.3125-10.230469 1-15.300781 6.777344-51.210938 46.160157-92.015625 97.097657-100.601562.175781.027343.351562-.007813.5-.097657 6.25-1 12.570312-1.503906 18.902343-1.5 64.894531 0 117.5 52.605469 117.5 117.5s-52.605469 117.5-117.5 117.5zm0 0"/><path d="m371.25 336.800781c4.855469-1.800781 9.285156-4.59375 13-8.199219 11.222656-11.195312 13.71875-28.453124 6.128906-42.367187-7.589844-13.917969-23.453125-21.160156-38.941406-17.78125s-26.890625 16.566406-28 32.378906 8.347656 30.464844 23.210938 35.96875c-24.070313 2.953125-42.195313 23.347657-42.296876 47.597657v37.601562c.105469 5.554688 4.640626 10 10.199219 10h89c2.632813 0 5.15625-1.058594 7-2.941406 1.84375-1.878906 2.851563-4.425782 2.800781-7.058594v-37.601562c-.011718-24.214844-18.066406-44.628907-42.101562-47.597657zm-23.300781-44.699219c4.511719-4.523437 11.308593-5.875 17.203125-3.417968 5.898437 2.457031 9.730468 8.230468 9.699218 14.617187.019532 4.195313-1.636718 8.230469-4.601562 11.199219-2.929688 2.964844-6.933594 4.621094-11.101562 4.601562-6.386719-.015624-12.140626-3.871093-14.589844-9.773437-2.449219-5.898437-1.109375-12.695313 3.390625-17.226563zm45.402343 119.898438h-69v-27.5c0-15.398438 12.796876-28.5 28.199219-28.5h13c15.398438 0 27.800781 13 27.800781 28.5zm0 0"/></g></svg>