<svg height="495.7pt" viewBox="0 0 495.7 495.7" width="495.7pt" xmlns="http://www.w3.org/2000/svg"><path d="m337.199219 232.398438c6.945312-1.125 13.964843-1.695313 21-1.699219 70.476562-.039063 127.632812 57.074219 127.648437 127.550781.011719 70.472656-57.125 127.609375-127.597656 127.597656-70.476562-.015625-127.589844-57.171875-127.550781-127.648437.011719-5.550781.378906-11.09375 1.101562-16.597657 7.257813-55.636718 50.054688-99.976562 105.398438-109.203124zm52.402343 142.601562 30.898438-30.101562-42.699219-6.199219-19.101562-38.699219-19.097657 38.699219-42.703124 6.199219 30.902343 30.101562-7.300781 42.5 38.199219-20.101562 38.199219 20.101562zm0 0" fill="#00efd1"/><path d="m420.5 344.898438-30.898438 30.101562 7.296876 42.5-38.199219-20-38.199219 20 7.300781-42.5-30.902343-30.101562 42.703124-6.199219 19.097657-38.699219 19.101562 38.699219zm0 0" fill="#fedb41"/><path d="m337.199219 10.199219v222.199219c-55.363281 9.21875-98.195313 53.550781-105.5 109.203124h-154.699219v-331.402343zm-44 142.601562v-90.101562h-172.199219v90.199219h172.199219zm0 0" fill="#00acea"/><path d="m121 62.699219h172.199219v90.199219h-172.199219zm0 0" fill="#00efd1"/><path d="m247.300781 421.199219h-197.199219c-21.949218-.078125-39.722656-17.851563-39.800781-39.800781v-1.597657c.890625-21.339843 18.441407-38.1875 39.800781-38.199219h181.597657c-.71875 5.503907-1.089844 11.046876-1.097657 16.597657-.015624 22.097656 5.742188 43.8125 16.699219 63zm0 0" fill="#d4e1f4"/><path d="m77 10.199219v331.402343h-26.898438c-21.359374.011719-38.914062 16.859376-39.800781 38.199219v-329.800781c-.007812-10.558594 4.183594-20.683594 11.648438-28.148438 7.464843-7.464843 17.59375-11.65625 28.152343-11.652343zm0 0" fill="#00efd1"/><g fill="#083863"><path d="m303 63c-.015625-5.515625-4.484375-9.984375-10-10h-172c-5.515625.015625-9.984375 4.484375-10 10v90c.015625 5.515625 4.484375 9.984375 10 10h172c5.515625-.015625 9.984375-4.484375 10-10zm-172 10h152v70h-152zm0 0"/><path d="m358.101562 220.699219c-3.601562 0-7.101562.101562-11.101562.402343v-210.902343c.0625-2.652344-.9375-5.222657-2.777344-7.136719-1.839844-1.917969-4.367187-3.0195312-7.023437-3.0625h-287.097657c-27.585937.109375-49.9375 22.414062-50.101562 50v329.800781c0 .097657.199219.300781.199219.398438v1.199219c.019531 13.203124 5.292969 25.851562 14.65625 35.15625 9.363281 9.308593 22.042969 14.503906 35.246093 14.445312h191.5c25.175782 40.15625 69.199219 64.585938 116.597657 64.699219 75.800781 0 137.5-61.597657 137.5-137.5 0-75.898438-61.800781-137.5-137.597657-137.5zm-31.101562 3.5c-26 5.902343-49.101562 19.300781-67.800781 38.601562-18.46875 19.078125-30.976563 43.125-36 69.199219h-136.199219v-312h240zm-276.898438-204.199219h16.898438v312h-16.898438c-10.78125-.046875-21.300781 3.277344-30.101562 9.5v-291.5c.128906-16.554688 13.546875-29.925781 30.101562-30zm-21.101562 382.398438c-5.597656-5.550782-8.730469-13.117188-8.699219-21v-1c.613281-15.96875 13.816407-28.554688 29.800781-28.398438h170.796876c-.097657 2-.199219 4.101562-.199219 6.300781-.078125 18.101563 3.527343 36.035157 10.601562 52.699219h-181.199219c-7.902343.070312-15.5-3.027344-21.101562-8.601562zm329.199219 73.402343c-41.773438-.078125-80.382813-22.257812-101.5-58.300781-.332031-.820312-.769531-1.589844-1.300781-2.300781-9.632813-17.417969-14.691407-36.996094-14.699219-56.898438-.019531-5.117187.3125-10.230469 1-15.300781 6.777343-51.210938 46.160156-92.015625 97.101562-100.601562.171875.027343.347657-.007813.5-.097657 6.25-1 12.570313-1.503906 18.898438-1.5 64.894531 0 117.5 52.605469 117.5 117.5s-52.605469 117.5-117.5 117.5zm0 0"/><path d="m422 335-37.5-5.398438-16.800781-34c-1.6875-3.429687-5.175781-5.601562-9-5.601562-3.820313 0-7.3125 2.171875-9 5.601562l-16.800781 34-37.5 5.398438c-3.777344.53125-6.921876 3.171875-8.097657 6.800781-1.179687 3.628907-.210937 7.613281 2.5 10.300781l27.097657 26.5-6.398438 37.296876c-.636719 3.75.902344 7.539062 3.972656 9.78125 3.070313 2.246093 7.148438 2.5625 10.527344.820312l33.5-17.601562 33.5 17.601562c3.410156 1.714844 7.488281 1.40625 10.601562-.800781 3.089844-2.238281 4.640626-6.039063 4-9.800781l-6.402343-37.296876 27.101562-26.5c2.722657-2.679687 3.691407-6.671874 2.5-10.300781-.988281-3.632812-4.066406-6.316406-7.800781-6.800781zm-39.398438 32.898438c-2.367187 2.3125-3.449218 5.640624-2.902343 8.902343l3.902343 22.597657-20.300781-10.699219c-2.917969-1.5-6.382812-1.5-9.300781 0l-20.300781 10.699219 3.902343-22.597657c.582032-3.265625-.507812-6.605469-2.902343-8.902343l-16.398438-16 22.699219-3.296876c3.269531-.453124 6.089844-2.519531 7.5-5.5l10.101562-20.5 10.097657 20.5c1.457031 2.941407 4.253906 4.992188 7.5 5.5l22.699219 3.296876zm0 0"/></g></svg>